<mxfile host="app.diagrams.net" agent="Mozilla/5.0 (Macintosh; Intel Mac OS X 10_15_7) AppleWebKit/537.36 (KHTML, like Gecko) Chrome/137.0.0.0 Safari/537.36" version="27.1.6">
  <diagram name="Страница — 1" id="-5jSchrYzSs2Ax-FUpMj">
    <mxGraphModel dx="5301" dy="3023" grid="1" gridSize="10" guides="1" tooltips="1" connect="1" arrows="1" fold="1" page="1" pageScale="1" pageWidth="1169" pageHeight="827" math="0" shadow="0">
      <root>
        <mxCell id="0" />
        <mxCell id="1" parent="0" />
        <mxCell id="GiMZDYjhRyIp7pm7bTPy-7" style="edgeStyle=orthogonalEdgeStyle;rounded=0;orthogonalLoop=1;jettySize=auto;html=1;entryX=0.5;entryY=1;entryDx=0;entryDy=0;" edge="1" parent="1" source="GiMZDYjhRyIp7pm7bTPy-1" target="GiMZDYjhRyIp7pm7bTPy-3">
          <mxGeometry relative="1" as="geometry" />
        </mxCell>
        <mxCell id="GiMZDYjhRyIp7pm7bTPy-8" style="edgeStyle=orthogonalEdgeStyle;rounded=0;orthogonalLoop=1;jettySize=auto;html=1;entryX=0;entryY=0.5;entryDx=0;entryDy=0;" edge="1" parent="1" source="GiMZDYjhRyIp7pm7bTPy-1" target="GiMZDYjhRyIp7pm7bTPy-5">
          <mxGeometry relative="1" as="geometry" />
        </mxCell>
        <mxCell id="GiMZDYjhRyIp7pm7bTPy-9" style="edgeStyle=orthogonalEdgeStyle;rounded=0;orthogonalLoop=1;jettySize=auto;html=1;" edge="1" parent="1" source="GiMZDYjhRyIp7pm7bTPy-1" target="GiMZDYjhRyIp7pm7bTPy-4">
          <mxGeometry relative="1" as="geometry" />
        </mxCell>
        <mxCell id="GiMZDYjhRyIp7pm7bTPy-10" style="edgeStyle=orthogonalEdgeStyle;rounded=0;orthogonalLoop=1;jettySize=auto;html=1;entryX=1;entryY=0.5;entryDx=0;entryDy=0;" edge="1" parent="1" source="GiMZDYjhRyIp7pm7bTPy-1" target="GiMZDYjhRyIp7pm7bTPy-6">
          <mxGeometry relative="1" as="geometry" />
        </mxCell>
        <mxCell id="GiMZDYjhRyIp7pm7bTPy-1" value="&lt;font style=&quot;font-size: 18px;&quot;&gt;Безопасность данных&lt;/font&gt;" style="rounded=0;whiteSpace=wrap;html=1;" vertex="1" parent="1">
          <mxGeometry x="410" y="320" width="240" height="120" as="geometry" />
        </mxCell>
        <mxCell id="GiMZDYjhRyIp7pm7bTPy-3" value="&lt;font style=&quot;font-size: 18px;&quot;&gt;Публичные данные&lt;/font&gt;" style="rounded=0;whiteSpace=wrap;html=1;" vertex="1" parent="1">
          <mxGeometry x="410" y="-40" width="240" height="120" as="geometry" />
        </mxCell>
        <mxCell id="GiMZDYjhRyIp7pm7bTPy-195" style="edgeStyle=orthogonalEdgeStyle;rounded=0;orthogonalLoop=1;jettySize=auto;html=1;entryX=0.5;entryY=0;entryDx=0;entryDy=0;" edge="1" parent="1" source="GiMZDYjhRyIp7pm7bTPy-4" target="GiMZDYjhRyIp7pm7bTPy-174">
          <mxGeometry relative="1" as="geometry" />
        </mxCell>
        <mxCell id="GiMZDYjhRyIp7pm7bTPy-4" value="&lt;font style=&quot;font-size: 18px;&quot;&gt;Внутренние данные&lt;/font&gt;" style="rounded=0;whiteSpace=wrap;html=1;" vertex="1" parent="1">
          <mxGeometry x="410" y="700" width="240" height="120" as="geometry" />
        </mxCell>
        <mxCell id="GiMZDYjhRyIp7pm7bTPy-128" style="edgeStyle=orthogonalEdgeStyle;rounded=0;orthogonalLoop=1;jettySize=auto;html=1;" edge="1" parent="1" source="GiMZDYjhRyIp7pm7bTPy-5">
          <mxGeometry relative="1" as="geometry">
            <mxPoint x="1080" y="200" as="targetPoint" />
          </mxGeometry>
        </mxCell>
        <mxCell id="GiMZDYjhRyIp7pm7bTPy-151" style="edgeStyle=orthogonalEdgeStyle;rounded=0;orthogonalLoop=1;jettySize=auto;html=1;entryX=0;entryY=0.5;entryDx=0;entryDy=0;" edge="1" parent="1" source="GiMZDYjhRyIp7pm7bTPy-5" target="GiMZDYjhRyIp7pm7bTPy-135">
          <mxGeometry relative="1" as="geometry" />
        </mxCell>
        <mxCell id="GiMZDYjhRyIp7pm7bTPy-173" style="edgeStyle=orthogonalEdgeStyle;rounded=0;orthogonalLoop=1;jettySize=auto;html=1;" edge="1" parent="1" source="GiMZDYjhRyIp7pm7bTPy-5" target="GiMZDYjhRyIp7pm7bTPy-152">
          <mxGeometry relative="1" as="geometry" />
        </mxCell>
        <mxCell id="GiMZDYjhRyIp7pm7bTPy-5" value="&lt;font style=&quot;font-size: 18px;&quot;&gt;Конфиденциальные данные&lt;/font&gt;" style="rounded=0;whiteSpace=wrap;html=1;" vertex="1" parent="1">
          <mxGeometry x="960" y="320" width="240" height="120" as="geometry" />
        </mxCell>
        <mxCell id="GiMZDYjhRyIp7pm7bTPy-6" value="&lt;font style=&quot;font-size: 18px;&quot;&gt;Секретные данные&lt;/font&gt;" style="rounded=0;whiteSpace=wrap;html=1;" vertex="1" parent="1">
          <mxGeometry x="-70" y="320" width="240" height="120" as="geometry" />
        </mxCell>
        <mxCell id="GiMZDYjhRyIp7pm7bTPy-81" value="Фонд недвижимости (витрина)" style="shape=table;startSize=30;container=1;collapsible=0;childLayout=tableLayout;strokeColor=default;fontSize=16;" vertex="1" parent="1">
          <mxGeometry x="365" y="-430" width="405" height="300" as="geometry" />
        </mxCell>
        <mxCell id="GiMZDYjhRyIp7pm7bTPy-82" value="" style="shape=tableRow;horizontal=0;startSize=0;swimlaneHead=0;swimlaneBody=0;strokeColor=inherit;top=0;left=0;bottom=0;right=0;collapsible=0;dropTarget=0;fillColor=none;points=[[0,0.5],[1,0.5]];portConstraint=eastwest;fontSize=16;" vertex="1" parent="GiMZDYjhRyIp7pm7bTPy-81">
          <mxGeometry y="30" width="405" height="55" as="geometry" />
        </mxCell>
        <mxCell id="GiMZDYjhRyIp7pm7bTPy-83" value="&lt;font style=&quot;font-size: 12px;&quot;&gt;Утечка данных&lt;/font&gt;" style="shape=partialRectangle;html=1;whiteSpace=wrap;connectable=0;strokeColor=inherit;overflow=hidden;fillColor=none;top=0;left=0;bottom=0;right=0;pointerEvents=1;fontSize=16;" vertex="1" parent="GiMZDYjhRyIp7pm7bTPy-82">
          <mxGeometry width="119" height="55" as="geometry">
            <mxRectangle width="119" height="55" as="alternateBounds" />
          </mxGeometry>
        </mxCell>
        <mxCell id="GiMZDYjhRyIp7pm7bTPy-84" value="&lt;font style=&quot;font-size: 12px;&quot;&gt;Незначительный&lt;/font&gt;" style="shape=partialRectangle;html=1;whiteSpace=wrap;connectable=0;strokeColor=#82b366;overflow=hidden;fillColor=#d5e8d4;top=0;left=0;bottom=0;right=0;pointerEvents=1;fontSize=16;" vertex="1" parent="GiMZDYjhRyIp7pm7bTPy-82">
          <mxGeometry x="119" width="119" height="55" as="geometry">
            <mxRectangle width="119" height="55" as="alternateBounds" />
          </mxGeometry>
        </mxCell>
        <mxCell id="GiMZDYjhRyIp7pm7bTPy-85" value="&lt;font style=&quot;font-size: 11px;&quot;&gt;Данные в публичном доступе&lt;/font&gt;" style="shape=partialRectangle;html=1;whiteSpace=wrap;connectable=0;strokeColor=inherit;overflow=hidden;fillColor=none;top=0;left=0;bottom=0;right=0;pointerEvents=1;fontSize=16;" vertex="1" parent="GiMZDYjhRyIp7pm7bTPy-82">
          <mxGeometry x="238" width="167" height="55" as="geometry">
            <mxRectangle width="167" height="55" as="alternateBounds" />
          </mxGeometry>
        </mxCell>
        <mxCell id="GiMZDYjhRyIp7pm7bTPy-86" value="" style="shape=tableRow;horizontal=0;startSize=0;swimlaneHead=0;swimlaneBody=0;strokeColor=inherit;top=0;left=0;bottom=0;right=0;collapsible=0;dropTarget=0;fillColor=none;points=[[0,0.5],[1,0.5]];portConstraint=eastwest;fontSize=16;" vertex="1" parent="GiMZDYjhRyIp7pm7bTPy-81">
          <mxGeometry y="85" width="405" height="51" as="geometry" />
        </mxCell>
        <mxCell id="GiMZDYjhRyIp7pm7bTPy-87" value="&lt;font style=&quot;font-size: 12px;&quot;&gt;Потеря данных&lt;/font&gt;" style="shape=partialRectangle;html=1;whiteSpace=wrap;connectable=0;strokeColor=inherit;overflow=hidden;fillColor=none;top=0;left=0;bottom=0;right=0;pointerEvents=1;fontSize=16;" vertex="1" parent="GiMZDYjhRyIp7pm7bTPy-86">
          <mxGeometry width="119" height="51" as="geometry">
            <mxRectangle width="119" height="51" as="alternateBounds" />
          </mxGeometry>
        </mxCell>
        <mxCell id="GiMZDYjhRyIp7pm7bTPy-88" value="&lt;font style=&quot;font-size: 12px;&quot;&gt;Значительный&lt;/font&gt;" style="shape=partialRectangle;html=1;whiteSpace=wrap;connectable=0;strokeColor=#d6b656;overflow=hidden;fillColor=#fff2cc;top=0;left=0;bottom=0;right=0;pointerEvents=1;fontSize=16;" vertex="1" parent="GiMZDYjhRyIp7pm7bTPy-86">
          <mxGeometry x="119" width="119" height="51" as="geometry">
            <mxRectangle width="119" height="51" as="alternateBounds" />
          </mxGeometry>
        </mxCell>
        <mxCell id="GiMZDYjhRyIp7pm7bTPy-89" value="&lt;span style=&quot;font-size: 8px;&quot;&gt;Нельзя потерять данные о недвижимости с витрины&lt;/span&gt;" style="shape=partialRectangle;html=1;whiteSpace=wrap;connectable=0;strokeColor=inherit;overflow=hidden;fillColor=none;top=0;left=0;bottom=0;right=0;pointerEvents=1;fontSize=16;align=center;" vertex="1" parent="GiMZDYjhRyIp7pm7bTPy-86">
          <mxGeometry x="238" width="167" height="51" as="geometry">
            <mxRectangle width="167" height="51" as="alternateBounds" />
          </mxGeometry>
        </mxCell>
        <mxCell id="GiMZDYjhRyIp7pm7bTPy-90" value="" style="shape=tableRow;horizontal=0;startSize=0;swimlaneHead=0;swimlaneBody=0;strokeColor=inherit;top=0;left=0;bottom=0;right=0;collapsible=0;dropTarget=0;fillColor=none;points=[[0,0.5],[1,0.5]];portConstraint=eastwest;fontSize=16;" vertex="1" parent="GiMZDYjhRyIp7pm7bTPy-81">
          <mxGeometry y="136" width="405" height="55" as="geometry" />
        </mxCell>
        <mxCell id="GiMZDYjhRyIp7pm7bTPy-91" value="&lt;font style=&quot;font-size: 12px;&quot;&gt;Искажение данных&lt;/font&gt;" style="shape=partialRectangle;html=1;whiteSpace=wrap;connectable=0;strokeColor=inherit;overflow=hidden;fillColor=none;top=0;left=0;bottom=0;right=0;pointerEvents=1;fontSize=16;" vertex="1" parent="GiMZDYjhRyIp7pm7bTPy-90">
          <mxGeometry width="119" height="55" as="geometry">
            <mxRectangle width="119" height="55" as="alternateBounds" />
          </mxGeometry>
        </mxCell>
        <mxCell id="GiMZDYjhRyIp7pm7bTPy-92" value="&lt;font style=&quot;font-size: 12px;&quot;&gt;Критический&lt;/font&gt;" style="shape=partialRectangle;html=1;whiteSpace=wrap;connectable=0;strokeColor=#b85450;overflow=hidden;fillColor=#f8cecc;top=0;left=0;bottom=0;right=0;pointerEvents=1;fontSize=16;" vertex="1" parent="GiMZDYjhRyIp7pm7bTPy-90">
          <mxGeometry x="119" width="119" height="55" as="geometry">
            <mxRectangle width="119" height="55" as="alternateBounds" />
          </mxGeometry>
        </mxCell>
        <mxCell id="GiMZDYjhRyIp7pm7bTPy-93" value="&lt;font style=&quot;font-size: 9px;&quot;&gt;Клиенты должны получать достоверные данные на витрине&lt;/font&gt;" style="shape=partialRectangle;html=1;whiteSpace=wrap;connectable=0;strokeColor=inherit;overflow=hidden;fillColor=none;top=0;left=0;bottom=0;right=0;pointerEvents=1;fontSize=16;" vertex="1" parent="GiMZDYjhRyIp7pm7bTPy-90">
          <mxGeometry x="238" width="167" height="55" as="geometry">
            <mxRectangle width="167" height="55" as="alternateBounds" />
          </mxGeometry>
        </mxCell>
        <mxCell id="GiMZDYjhRyIp7pm7bTPy-94" value="" style="shape=tableRow;horizontal=0;startSize=0;swimlaneHead=0;swimlaneBody=0;strokeColor=inherit;top=0;left=0;bottom=0;right=0;collapsible=0;dropTarget=0;fillColor=none;points=[[0,0.5],[1,0.5]];portConstraint=eastwest;fontSize=16;" vertex="1" parent="GiMZDYjhRyIp7pm7bTPy-81">
          <mxGeometry y="191" width="405" height="54" as="geometry" />
        </mxCell>
        <mxCell id="GiMZDYjhRyIp7pm7bTPy-95" value="&lt;font style=&quot;font-size: 12px;&quot;&gt;Некачественные данные&lt;/font&gt;" style="shape=partialRectangle;html=1;whiteSpace=wrap;connectable=0;strokeColor=inherit;overflow=hidden;fillColor=none;top=0;left=0;bottom=0;right=0;pointerEvents=1;fontSize=16;" vertex="1" parent="GiMZDYjhRyIp7pm7bTPy-94">
          <mxGeometry width="119" height="54" as="geometry">
            <mxRectangle width="119" height="54" as="alternateBounds" />
          </mxGeometry>
        </mxCell>
        <mxCell id="GiMZDYjhRyIp7pm7bTPy-96" value="&lt;font style=&quot;font-size: 12px;&quot;&gt;Критический&lt;/font&gt;" style="shape=partialRectangle;html=1;whiteSpace=wrap;connectable=0;strokeColor=#b85450;overflow=hidden;fillColor=#f8cecc;top=0;left=0;bottom=0;right=0;pointerEvents=1;fontSize=16;" vertex="1" parent="GiMZDYjhRyIp7pm7bTPy-94">
          <mxGeometry x="119" width="119" height="54" as="geometry">
            <mxRectangle width="119" height="54" as="alternateBounds" />
          </mxGeometry>
        </mxCell>
        <mxCell id="GiMZDYjhRyIp7pm7bTPy-97" value="&lt;span style=&quot;font-size: 9px;&quot;&gt;Клиенты должны получать качественные данные на витрине&lt;/span&gt;" style="shape=partialRectangle;html=1;whiteSpace=wrap;connectable=0;strokeColor=inherit;overflow=hidden;fillColor=none;top=0;left=0;bottom=0;right=0;pointerEvents=1;fontSize=16;" vertex="1" parent="GiMZDYjhRyIp7pm7bTPy-94">
          <mxGeometry x="238" width="167" height="54" as="geometry">
            <mxRectangle width="167" height="54" as="alternateBounds" />
          </mxGeometry>
        </mxCell>
        <mxCell id="GiMZDYjhRyIp7pm7bTPy-98" value="" style="shape=tableRow;horizontal=0;startSize=0;swimlaneHead=0;swimlaneBody=0;strokeColor=inherit;top=0;left=0;bottom=0;right=0;collapsible=0;dropTarget=0;fillColor=none;points=[[0,0.5],[1,0.5]];portConstraint=eastwest;fontSize=16;" vertex="1" parent="GiMZDYjhRyIp7pm7bTPy-81">
          <mxGeometry y="245" width="405" height="55" as="geometry" />
        </mxCell>
        <mxCell id="GiMZDYjhRyIp7pm7bTPy-99" value="&lt;font style=&quot;font-size: 12px;&quot;&gt;Обесценивание данных&lt;/font&gt;" style="shape=partialRectangle;html=1;whiteSpace=wrap;connectable=0;strokeColor=inherit;overflow=hidden;fillColor=none;top=0;left=0;bottom=0;right=0;pointerEvents=1;fontSize=16;" vertex="1" parent="GiMZDYjhRyIp7pm7bTPy-98">
          <mxGeometry width="119" height="55" as="geometry">
            <mxRectangle width="119" height="55" as="alternateBounds" />
          </mxGeometry>
        </mxCell>
        <mxCell id="GiMZDYjhRyIp7pm7bTPy-100" value="&lt;font style=&quot;font-size: 12px;&quot;&gt;Критический&lt;/font&gt;" style="shape=partialRectangle;html=1;whiteSpace=wrap;connectable=0;strokeColor=#b85450;overflow=hidden;fillColor=#f8cecc;top=0;left=0;bottom=0;right=0;pointerEvents=1;fontSize=16;" vertex="1" parent="GiMZDYjhRyIp7pm7bTPy-98">
          <mxGeometry x="119" width="119" height="55" as="geometry">
            <mxRectangle width="119" height="55" as="alternateBounds" />
          </mxGeometry>
        </mxCell>
        <mxCell id="GiMZDYjhRyIp7pm7bTPy-101" value="&lt;span style=&quot;font-size: 9px;&quot;&gt;Клиенты должны получать достоверные данные на витрине&lt;/span&gt;" style="shape=partialRectangle;html=1;whiteSpace=wrap;connectable=0;strokeColor=inherit;overflow=hidden;fillColor=none;top=0;left=0;bottom=0;right=0;pointerEvents=1;fontSize=16;" vertex="1" parent="GiMZDYjhRyIp7pm7bTPy-98">
          <mxGeometry x="238" width="167" height="55" as="geometry">
            <mxRectangle width="167" height="55" as="alternateBounds" />
          </mxGeometry>
        </mxCell>
        <mxCell id="GiMZDYjhRyIp7pm7bTPy-105" style="edgeStyle=orthogonalEdgeStyle;rounded=0;orthogonalLoop=1;jettySize=auto;html=1;entryX=0.407;entryY=1;entryDx=0;entryDy=0;entryPerimeter=0;" edge="1" parent="1" source="GiMZDYjhRyIp7pm7bTPy-3" target="GiMZDYjhRyIp7pm7bTPy-98">
          <mxGeometry relative="1" as="geometry" />
        </mxCell>
        <mxCell id="GiMZDYjhRyIp7pm7bTPy-107" value="Персональные данные клиентов" style="shape=table;startSize=30;container=1;collapsible=0;childLayout=tableLayout;strokeColor=default;fontSize=16;" vertex="1" parent="1">
          <mxGeometry x="930" y="-100" width="405" height="300" as="geometry" />
        </mxCell>
        <mxCell id="GiMZDYjhRyIp7pm7bTPy-108" value="" style="shape=tableRow;horizontal=0;startSize=0;swimlaneHead=0;swimlaneBody=0;strokeColor=inherit;top=0;left=0;bottom=0;right=0;collapsible=0;dropTarget=0;fillColor=none;points=[[0,0.5],[1,0.5]];portConstraint=eastwest;fontSize=16;" vertex="1" parent="GiMZDYjhRyIp7pm7bTPy-107">
          <mxGeometry y="30" width="405" height="55" as="geometry" />
        </mxCell>
        <mxCell id="GiMZDYjhRyIp7pm7bTPy-109" value="&lt;font style=&quot;font-size: 12px;&quot;&gt;Утечка данных&lt;/font&gt;" style="shape=partialRectangle;html=1;whiteSpace=wrap;connectable=0;strokeColor=inherit;overflow=hidden;fillColor=none;top=0;left=0;bottom=0;right=0;pointerEvents=1;fontSize=16;" vertex="1" parent="GiMZDYjhRyIp7pm7bTPy-108">
          <mxGeometry width="119" height="55" as="geometry">
            <mxRectangle width="119" height="55" as="alternateBounds" />
          </mxGeometry>
        </mxCell>
        <mxCell id="GiMZDYjhRyIp7pm7bTPy-110" value="&lt;font style=&quot;font-size: 12px;&quot;&gt;Критический&lt;/font&gt;" style="shape=partialRectangle;html=1;whiteSpace=wrap;connectable=0;strokeColor=#b85450;overflow=hidden;fillColor=#f8cecc;top=0;left=0;bottom=0;right=0;pointerEvents=1;fontSize=16;" vertex="1" parent="GiMZDYjhRyIp7pm7bTPy-108">
          <mxGeometry x="119" width="119" height="55" as="geometry">
            <mxRectangle width="119" height="55" as="alternateBounds" />
          </mxGeometry>
        </mxCell>
        <mxCell id="GiMZDYjhRyIp7pm7bTPy-111" value="&lt;font style=&quot;font-size: 8px;&quot;&gt;Нельзя допустить передачу персональных данных клиентов третьим лицам 152-ФЗ&lt;/font&gt;" style="shape=partialRectangle;html=1;whiteSpace=wrap;connectable=0;strokeColor=inherit;overflow=hidden;fillColor=none;top=0;left=0;bottom=0;right=0;pointerEvents=1;fontSize=16;" vertex="1" parent="GiMZDYjhRyIp7pm7bTPy-108">
          <mxGeometry x="238" width="167" height="55" as="geometry">
            <mxRectangle width="167" height="55" as="alternateBounds" />
          </mxGeometry>
        </mxCell>
        <mxCell id="GiMZDYjhRyIp7pm7bTPy-112" value="" style="shape=tableRow;horizontal=0;startSize=0;swimlaneHead=0;swimlaneBody=0;strokeColor=inherit;top=0;left=0;bottom=0;right=0;collapsible=0;dropTarget=0;fillColor=none;points=[[0,0.5],[1,0.5]];portConstraint=eastwest;fontSize=16;" vertex="1" parent="GiMZDYjhRyIp7pm7bTPy-107">
          <mxGeometry y="85" width="405" height="51" as="geometry" />
        </mxCell>
        <mxCell id="GiMZDYjhRyIp7pm7bTPy-113" value="&lt;font style=&quot;font-size: 12px;&quot;&gt;Потеря данных&lt;/font&gt;" style="shape=partialRectangle;html=1;whiteSpace=wrap;connectable=0;strokeColor=inherit;overflow=hidden;fillColor=none;top=0;left=0;bottom=0;right=0;pointerEvents=1;fontSize=16;" vertex="1" parent="GiMZDYjhRyIp7pm7bTPy-112">
          <mxGeometry width="119" height="51" as="geometry">
            <mxRectangle width="119" height="51" as="alternateBounds" />
          </mxGeometry>
        </mxCell>
        <mxCell id="GiMZDYjhRyIp7pm7bTPy-114" value="&lt;font style=&quot;font-size: 12px;&quot;&gt;Значительный&lt;/font&gt;" style="shape=partialRectangle;html=1;whiteSpace=wrap;connectable=0;strokeColor=#d6b656;overflow=hidden;fillColor=#fff2cc;top=0;left=0;bottom=0;right=0;pointerEvents=1;fontSize=16;" vertex="1" parent="GiMZDYjhRyIp7pm7bTPy-112">
          <mxGeometry x="119" width="119" height="51" as="geometry">
            <mxRectangle width="119" height="51" as="alternateBounds" />
          </mxGeometry>
        </mxCell>
        <mxCell id="GiMZDYjhRyIp7pm7bTPy-115" value="&lt;font style=&quot;font-size: 8px;&quot;&gt;Данные клиентов допустимо потерять, если есть возможность их восстановить&amp;nbsp; &amp;nbsp;&lt;/font&gt;" style="shape=partialRectangle;html=1;whiteSpace=wrap;connectable=0;strokeColor=inherit;overflow=hidden;fillColor=none;top=0;left=0;bottom=0;right=0;pointerEvents=1;fontSize=16;align=center;" vertex="1" parent="GiMZDYjhRyIp7pm7bTPy-112">
          <mxGeometry x="238" width="167" height="51" as="geometry">
            <mxRectangle width="167" height="51" as="alternateBounds" />
          </mxGeometry>
        </mxCell>
        <mxCell id="GiMZDYjhRyIp7pm7bTPy-116" value="" style="shape=tableRow;horizontal=0;startSize=0;swimlaneHead=0;swimlaneBody=0;strokeColor=inherit;top=0;left=0;bottom=0;right=0;collapsible=0;dropTarget=0;fillColor=none;points=[[0,0.5],[1,0.5]];portConstraint=eastwest;fontSize=16;" vertex="1" parent="GiMZDYjhRyIp7pm7bTPy-107">
          <mxGeometry y="136" width="405" height="55" as="geometry" />
        </mxCell>
        <mxCell id="GiMZDYjhRyIp7pm7bTPy-117" value="&lt;font style=&quot;font-size: 12px;&quot;&gt;Искажение данных&lt;/font&gt;" style="shape=partialRectangle;html=1;whiteSpace=wrap;connectable=0;strokeColor=inherit;overflow=hidden;fillColor=none;top=0;left=0;bottom=0;right=0;pointerEvents=1;fontSize=16;" vertex="1" parent="GiMZDYjhRyIp7pm7bTPy-116">
          <mxGeometry width="119" height="55" as="geometry">
            <mxRectangle width="119" height="55" as="alternateBounds" />
          </mxGeometry>
        </mxCell>
        <mxCell id="GiMZDYjhRyIp7pm7bTPy-118" value="&lt;font style=&quot;font-size: 12px;&quot;&gt;Критический&lt;/font&gt;" style="shape=partialRectangle;html=1;whiteSpace=wrap;connectable=0;strokeColor=#b85450;overflow=hidden;fillColor=#f8cecc;top=0;left=0;bottom=0;right=0;pointerEvents=1;fontSize=16;" vertex="1" parent="GiMZDYjhRyIp7pm7bTPy-116">
          <mxGeometry x="119" width="119" height="55" as="geometry">
            <mxRectangle width="119" height="55" as="alternateBounds" />
          </mxGeometry>
        </mxCell>
        <mxCell id="GiMZDYjhRyIp7pm7bTPy-119" value="&lt;font style=&quot;font-size: 8px;&quot;&gt;При проведении сделок и транзакций данные должны быть достоверны&lt;/font&gt;" style="shape=partialRectangle;html=1;whiteSpace=wrap;connectable=0;strokeColor=inherit;overflow=hidden;fillColor=none;top=0;left=0;bottom=0;right=0;pointerEvents=1;fontSize=16;" vertex="1" parent="GiMZDYjhRyIp7pm7bTPy-116">
          <mxGeometry x="238" width="167" height="55" as="geometry">
            <mxRectangle width="167" height="55" as="alternateBounds" />
          </mxGeometry>
        </mxCell>
        <mxCell id="GiMZDYjhRyIp7pm7bTPy-120" value="" style="shape=tableRow;horizontal=0;startSize=0;swimlaneHead=0;swimlaneBody=0;strokeColor=inherit;top=0;left=0;bottom=0;right=0;collapsible=0;dropTarget=0;fillColor=none;points=[[0,0.5],[1,0.5]];portConstraint=eastwest;fontSize=16;" vertex="1" parent="GiMZDYjhRyIp7pm7bTPy-107">
          <mxGeometry y="191" width="405" height="54" as="geometry" />
        </mxCell>
        <mxCell id="GiMZDYjhRyIp7pm7bTPy-121" value="&lt;font style=&quot;font-size: 12px;&quot;&gt;Некачественные данные&lt;/font&gt;" style="shape=partialRectangle;html=1;whiteSpace=wrap;connectable=0;strokeColor=inherit;overflow=hidden;fillColor=none;top=0;left=0;bottom=0;right=0;pointerEvents=1;fontSize=16;" vertex="1" parent="GiMZDYjhRyIp7pm7bTPy-120">
          <mxGeometry width="119" height="54" as="geometry">
            <mxRectangle width="119" height="54" as="alternateBounds" />
          </mxGeometry>
        </mxCell>
        <mxCell id="GiMZDYjhRyIp7pm7bTPy-122" value="&lt;font style=&quot;font-size: 12px;&quot;&gt;Критический&lt;/font&gt;" style="shape=partialRectangle;html=1;whiteSpace=wrap;connectable=0;strokeColor=#b85450;overflow=hidden;fillColor=#f8cecc;top=0;left=0;bottom=0;right=0;pointerEvents=1;fontSize=16;" vertex="1" parent="GiMZDYjhRyIp7pm7bTPy-120">
          <mxGeometry x="119" width="119" height="54" as="geometry">
            <mxRectangle width="119" height="54" as="alternateBounds" />
          </mxGeometry>
        </mxCell>
        <mxCell id="GiMZDYjhRyIp7pm7bTPy-123" value="&lt;span style=&quot;font-size: 8px;&quot;&gt;При проведении сделок и транзакций данные должны быть достоверны&lt;/span&gt;" style="shape=partialRectangle;html=1;whiteSpace=wrap;connectable=0;strokeColor=inherit;overflow=hidden;fillColor=none;top=0;left=0;bottom=0;right=0;pointerEvents=1;fontSize=16;" vertex="1" parent="GiMZDYjhRyIp7pm7bTPy-120">
          <mxGeometry x="238" width="167" height="54" as="geometry">
            <mxRectangle width="167" height="54" as="alternateBounds" />
          </mxGeometry>
        </mxCell>
        <mxCell id="GiMZDYjhRyIp7pm7bTPy-124" value="" style="shape=tableRow;horizontal=0;startSize=0;swimlaneHead=0;swimlaneBody=0;strokeColor=inherit;top=0;left=0;bottom=0;right=0;collapsible=0;dropTarget=0;fillColor=none;points=[[0,0.5],[1,0.5]];portConstraint=eastwest;fontSize=16;" vertex="1" parent="GiMZDYjhRyIp7pm7bTPy-107">
          <mxGeometry y="245" width="405" height="55" as="geometry" />
        </mxCell>
        <mxCell id="GiMZDYjhRyIp7pm7bTPy-125" value="&lt;font style=&quot;font-size: 12px;&quot;&gt;Обесценивание данных&lt;/font&gt;" style="shape=partialRectangle;html=1;whiteSpace=wrap;connectable=0;strokeColor=inherit;overflow=hidden;fillColor=none;top=0;left=0;bottom=0;right=0;pointerEvents=1;fontSize=16;" vertex="1" parent="GiMZDYjhRyIp7pm7bTPy-124">
          <mxGeometry width="119" height="55" as="geometry">
            <mxRectangle width="119" height="55" as="alternateBounds" />
          </mxGeometry>
        </mxCell>
        <mxCell id="GiMZDYjhRyIp7pm7bTPy-126" value="&lt;font style=&quot;font-size: 12px;&quot;&gt;Критический&lt;/font&gt;" style="shape=partialRectangle;html=1;whiteSpace=wrap;connectable=0;strokeColor=#b85450;overflow=hidden;fillColor=#f8cecc;top=0;left=0;bottom=0;right=0;pointerEvents=1;fontSize=16;" vertex="1" parent="GiMZDYjhRyIp7pm7bTPy-124">
          <mxGeometry x="119" width="119" height="55" as="geometry">
            <mxRectangle width="119" height="55" as="alternateBounds" />
          </mxGeometry>
        </mxCell>
        <mxCell id="GiMZDYjhRyIp7pm7bTPy-127" value="&lt;span style=&quot;font-size: 8px;&quot;&gt;При проведении сделок и транзакций данные должны быть достоверны&lt;/span&gt;" style="shape=partialRectangle;html=1;whiteSpace=wrap;connectable=0;strokeColor=inherit;overflow=hidden;fillColor=none;top=0;left=0;bottom=0;right=0;pointerEvents=1;fontSize=16;" vertex="1" parent="GiMZDYjhRyIp7pm7bTPy-124">
          <mxGeometry x="238" width="167" height="55" as="geometry">
            <mxRectangle width="167" height="55" as="alternateBounds" />
          </mxGeometry>
        </mxCell>
        <mxCell id="GiMZDYjhRyIp7pm7bTPy-130" value="Данные по сделкам" style="shape=table;startSize=30;container=1;collapsible=0;childLayout=tableLayout;strokeColor=default;fontSize=16;" vertex="1" parent="1">
          <mxGeometry x="1280" y="270" width="405" height="300" as="geometry" />
        </mxCell>
        <mxCell id="GiMZDYjhRyIp7pm7bTPy-131" value="" style="shape=tableRow;horizontal=0;startSize=0;swimlaneHead=0;swimlaneBody=0;strokeColor=inherit;top=0;left=0;bottom=0;right=0;collapsible=0;dropTarget=0;fillColor=none;points=[[0,0.5],[1,0.5]];portConstraint=eastwest;fontSize=16;" vertex="1" parent="GiMZDYjhRyIp7pm7bTPy-130">
          <mxGeometry y="30" width="405" height="55" as="geometry" />
        </mxCell>
        <mxCell id="GiMZDYjhRyIp7pm7bTPy-132" value="&lt;font style=&quot;font-size: 12px;&quot;&gt;Утечка данных&lt;/font&gt;" style="shape=partialRectangle;html=1;whiteSpace=wrap;connectable=0;strokeColor=inherit;overflow=hidden;fillColor=none;top=0;left=0;bottom=0;right=0;pointerEvents=1;fontSize=16;" vertex="1" parent="GiMZDYjhRyIp7pm7bTPy-131">
          <mxGeometry width="119" height="55" as="geometry">
            <mxRectangle width="119" height="55" as="alternateBounds" />
          </mxGeometry>
        </mxCell>
        <mxCell id="GiMZDYjhRyIp7pm7bTPy-133" value="&lt;font style=&quot;font-size: 12px;&quot;&gt;Критический&lt;/font&gt;" style="shape=partialRectangle;html=1;whiteSpace=wrap;connectable=0;strokeColor=#b85450;overflow=hidden;fillColor=#f8cecc;top=0;left=0;bottom=0;right=0;pointerEvents=1;fontSize=16;" vertex="1" parent="GiMZDYjhRyIp7pm7bTPy-131">
          <mxGeometry x="119" width="119" height="55" as="geometry">
            <mxRectangle width="119" height="55" as="alternateBounds" />
          </mxGeometry>
        </mxCell>
        <mxCell id="GiMZDYjhRyIp7pm7bTPy-134" value="&lt;font style=&quot;font-size: 8px;&quot;&gt;Нельзя допустить передачу данных о сделках третьим лицам 152-ФЗ&lt;/font&gt;" style="shape=partialRectangle;html=1;whiteSpace=wrap;connectable=0;strokeColor=inherit;overflow=hidden;fillColor=none;top=0;left=0;bottom=0;right=0;pointerEvents=1;fontSize=16;" vertex="1" parent="GiMZDYjhRyIp7pm7bTPy-131">
          <mxGeometry x="238" width="167" height="55" as="geometry">
            <mxRectangle width="167" height="55" as="alternateBounds" />
          </mxGeometry>
        </mxCell>
        <mxCell id="GiMZDYjhRyIp7pm7bTPy-135" value="" style="shape=tableRow;horizontal=0;startSize=0;swimlaneHead=0;swimlaneBody=0;strokeColor=inherit;top=0;left=0;bottom=0;right=0;collapsible=0;dropTarget=0;fillColor=none;points=[[0,0.5],[1,0.5]];portConstraint=eastwest;fontSize=16;" vertex="1" parent="GiMZDYjhRyIp7pm7bTPy-130">
          <mxGeometry y="85" width="405" height="51" as="geometry" />
        </mxCell>
        <mxCell id="GiMZDYjhRyIp7pm7bTPy-136" value="&lt;font style=&quot;font-size: 12px;&quot;&gt;Потеря данных&lt;/font&gt;" style="shape=partialRectangle;html=1;whiteSpace=wrap;connectable=0;strokeColor=inherit;overflow=hidden;fillColor=none;top=0;left=0;bottom=0;right=0;pointerEvents=1;fontSize=16;" vertex="1" parent="GiMZDYjhRyIp7pm7bTPy-135">
          <mxGeometry width="119" height="51" as="geometry">
            <mxRectangle width="119" height="51" as="alternateBounds" />
          </mxGeometry>
        </mxCell>
        <mxCell id="GiMZDYjhRyIp7pm7bTPy-137" value="&lt;font style=&quot;font-size: 12px;&quot;&gt;Значительный&lt;/font&gt;" style="shape=partialRectangle;html=1;whiteSpace=wrap;connectable=0;strokeColor=#d6b656;overflow=hidden;fillColor=#fff2cc;top=0;left=0;bottom=0;right=0;pointerEvents=1;fontSize=16;" vertex="1" parent="GiMZDYjhRyIp7pm7bTPy-135">
          <mxGeometry x="119" width="119" height="51" as="geometry">
            <mxRectangle width="119" height="51" as="alternateBounds" />
          </mxGeometry>
        </mxCell>
        <mxCell id="GiMZDYjhRyIp7pm7bTPy-138" value="&lt;font style=&quot;font-size: 8px;&quot;&gt;Данные допустимо потерять, если есть возможность их восстановить&amp;nbsp; &amp;nbsp;&lt;/font&gt;" style="shape=partialRectangle;html=1;whiteSpace=wrap;connectable=0;strokeColor=inherit;overflow=hidden;fillColor=none;top=0;left=0;bottom=0;right=0;pointerEvents=1;fontSize=16;align=center;" vertex="1" parent="GiMZDYjhRyIp7pm7bTPy-135">
          <mxGeometry x="238" width="167" height="51" as="geometry">
            <mxRectangle width="167" height="51" as="alternateBounds" />
          </mxGeometry>
        </mxCell>
        <mxCell id="GiMZDYjhRyIp7pm7bTPy-139" value="" style="shape=tableRow;horizontal=0;startSize=0;swimlaneHead=0;swimlaneBody=0;strokeColor=inherit;top=0;left=0;bottom=0;right=0;collapsible=0;dropTarget=0;fillColor=none;points=[[0,0.5],[1,0.5]];portConstraint=eastwest;fontSize=16;" vertex="1" parent="GiMZDYjhRyIp7pm7bTPy-130">
          <mxGeometry y="136" width="405" height="55" as="geometry" />
        </mxCell>
        <mxCell id="GiMZDYjhRyIp7pm7bTPy-140" value="&lt;font style=&quot;font-size: 12px;&quot;&gt;Искажение данных&lt;/font&gt;" style="shape=partialRectangle;html=1;whiteSpace=wrap;connectable=0;strokeColor=inherit;overflow=hidden;fillColor=none;top=0;left=0;bottom=0;right=0;pointerEvents=1;fontSize=16;" vertex="1" parent="GiMZDYjhRyIp7pm7bTPy-139">
          <mxGeometry width="119" height="55" as="geometry">
            <mxRectangle width="119" height="55" as="alternateBounds" />
          </mxGeometry>
        </mxCell>
        <mxCell id="GiMZDYjhRyIp7pm7bTPy-141" value="&lt;font style=&quot;font-size: 12px;&quot;&gt;Критический&lt;/font&gt;" style="shape=partialRectangle;html=1;whiteSpace=wrap;connectable=0;strokeColor=#b85450;overflow=hidden;fillColor=#f8cecc;top=0;left=0;bottom=0;right=0;pointerEvents=1;fontSize=16;" vertex="1" parent="GiMZDYjhRyIp7pm7bTPy-139">
          <mxGeometry x="119" width="119" height="55" as="geometry">
            <mxRectangle width="119" height="55" as="alternateBounds" />
          </mxGeometry>
        </mxCell>
        <mxCell id="GiMZDYjhRyIp7pm7bTPy-142" value="&lt;font style=&quot;font-size: 8px;&quot;&gt;При проведении сделок и транзакций данные должны быть достоверны&lt;/font&gt;" style="shape=partialRectangle;html=1;whiteSpace=wrap;connectable=0;strokeColor=inherit;overflow=hidden;fillColor=none;top=0;left=0;bottom=0;right=0;pointerEvents=1;fontSize=16;" vertex="1" parent="GiMZDYjhRyIp7pm7bTPy-139">
          <mxGeometry x="238" width="167" height="55" as="geometry">
            <mxRectangle width="167" height="55" as="alternateBounds" />
          </mxGeometry>
        </mxCell>
        <mxCell id="GiMZDYjhRyIp7pm7bTPy-143" value="" style="shape=tableRow;horizontal=0;startSize=0;swimlaneHead=0;swimlaneBody=0;strokeColor=inherit;top=0;left=0;bottom=0;right=0;collapsible=0;dropTarget=0;fillColor=none;points=[[0,0.5],[1,0.5]];portConstraint=eastwest;fontSize=16;" vertex="1" parent="GiMZDYjhRyIp7pm7bTPy-130">
          <mxGeometry y="191" width="405" height="54" as="geometry" />
        </mxCell>
        <mxCell id="GiMZDYjhRyIp7pm7bTPy-144" value="&lt;font style=&quot;font-size: 12px;&quot;&gt;Некачественные данные&lt;/font&gt;" style="shape=partialRectangle;html=1;whiteSpace=wrap;connectable=0;strokeColor=inherit;overflow=hidden;fillColor=none;top=0;left=0;bottom=0;right=0;pointerEvents=1;fontSize=16;" vertex="1" parent="GiMZDYjhRyIp7pm7bTPy-143">
          <mxGeometry width="119" height="54" as="geometry">
            <mxRectangle width="119" height="54" as="alternateBounds" />
          </mxGeometry>
        </mxCell>
        <mxCell id="GiMZDYjhRyIp7pm7bTPy-145" value="&lt;font style=&quot;font-size: 12px;&quot;&gt;Критический&lt;/font&gt;" style="shape=partialRectangle;html=1;whiteSpace=wrap;connectable=0;strokeColor=#b85450;overflow=hidden;fillColor=#f8cecc;top=0;left=0;bottom=0;right=0;pointerEvents=1;fontSize=16;" vertex="1" parent="GiMZDYjhRyIp7pm7bTPy-143">
          <mxGeometry x="119" width="119" height="54" as="geometry">
            <mxRectangle width="119" height="54" as="alternateBounds" />
          </mxGeometry>
        </mxCell>
        <mxCell id="GiMZDYjhRyIp7pm7bTPy-146" value="&lt;span style=&quot;font-size: 8px;&quot;&gt;При проведении сделок и транзакций данные должны быть достоверны&lt;/span&gt;" style="shape=partialRectangle;html=1;whiteSpace=wrap;connectable=0;strokeColor=inherit;overflow=hidden;fillColor=none;top=0;left=0;bottom=0;right=0;pointerEvents=1;fontSize=16;" vertex="1" parent="GiMZDYjhRyIp7pm7bTPy-143">
          <mxGeometry x="238" width="167" height="54" as="geometry">
            <mxRectangle width="167" height="54" as="alternateBounds" />
          </mxGeometry>
        </mxCell>
        <mxCell id="GiMZDYjhRyIp7pm7bTPy-147" value="" style="shape=tableRow;horizontal=0;startSize=0;swimlaneHead=0;swimlaneBody=0;strokeColor=inherit;top=0;left=0;bottom=0;right=0;collapsible=0;dropTarget=0;fillColor=none;points=[[0,0.5],[1,0.5]];portConstraint=eastwest;fontSize=16;" vertex="1" parent="GiMZDYjhRyIp7pm7bTPy-130">
          <mxGeometry y="245" width="405" height="55" as="geometry" />
        </mxCell>
        <mxCell id="GiMZDYjhRyIp7pm7bTPy-148" value="&lt;font style=&quot;font-size: 12px;&quot;&gt;Обесценивание данных&lt;/font&gt;" style="shape=partialRectangle;html=1;whiteSpace=wrap;connectable=0;strokeColor=inherit;overflow=hidden;fillColor=none;top=0;left=0;bottom=0;right=0;pointerEvents=1;fontSize=16;" vertex="1" parent="GiMZDYjhRyIp7pm7bTPy-147">
          <mxGeometry width="119" height="55" as="geometry">
            <mxRectangle width="119" height="55" as="alternateBounds" />
          </mxGeometry>
        </mxCell>
        <mxCell id="GiMZDYjhRyIp7pm7bTPy-149" value="&lt;font style=&quot;font-size: 12px;&quot;&gt;Критический&lt;/font&gt;" style="shape=partialRectangle;html=1;whiteSpace=wrap;connectable=0;strokeColor=#b85450;overflow=hidden;fillColor=#f8cecc;top=0;left=0;bottom=0;right=0;pointerEvents=1;fontSize=16;" vertex="1" parent="GiMZDYjhRyIp7pm7bTPy-147">
          <mxGeometry x="119" width="119" height="55" as="geometry">
            <mxRectangle width="119" height="55" as="alternateBounds" />
          </mxGeometry>
        </mxCell>
        <mxCell id="GiMZDYjhRyIp7pm7bTPy-150" value="&lt;span style=&quot;font-size: 8px;&quot;&gt;При проведении сделок и транзакций данные должны быть достоверны&lt;/span&gt;" style="shape=partialRectangle;html=1;whiteSpace=wrap;connectable=0;strokeColor=inherit;overflow=hidden;fillColor=none;top=0;left=0;bottom=0;right=0;pointerEvents=1;fontSize=16;" vertex="1" parent="GiMZDYjhRyIp7pm7bTPy-147">
          <mxGeometry x="238" width="167" height="55" as="geometry">
            <mxRectangle width="167" height="55" as="alternateBounds" />
          </mxGeometry>
        </mxCell>
        <mxCell id="GiMZDYjhRyIp7pm7bTPy-152" value="Данные умного дома" style="shape=table;startSize=30;container=1;collapsible=0;childLayout=tableLayout;strokeColor=default;fontSize=16;" vertex="1" parent="1">
          <mxGeometry x="877.5" y="640" width="405" height="300" as="geometry" />
        </mxCell>
        <mxCell id="GiMZDYjhRyIp7pm7bTPy-153" value="" style="shape=tableRow;horizontal=0;startSize=0;swimlaneHead=0;swimlaneBody=0;strokeColor=inherit;top=0;left=0;bottom=0;right=0;collapsible=0;dropTarget=0;fillColor=none;points=[[0,0.5],[1,0.5]];portConstraint=eastwest;fontSize=16;" vertex="1" parent="GiMZDYjhRyIp7pm7bTPy-152">
          <mxGeometry y="30" width="405" height="55" as="geometry" />
        </mxCell>
        <mxCell id="GiMZDYjhRyIp7pm7bTPy-154" value="&lt;font style=&quot;font-size: 12px;&quot;&gt;Утечка данных&lt;/font&gt;" style="shape=partialRectangle;html=1;whiteSpace=wrap;connectable=0;strokeColor=inherit;overflow=hidden;fillColor=none;top=0;left=0;bottom=0;right=0;pointerEvents=1;fontSize=16;" vertex="1" parent="GiMZDYjhRyIp7pm7bTPy-153">
          <mxGeometry width="119" height="55" as="geometry">
            <mxRectangle width="119" height="55" as="alternateBounds" />
          </mxGeometry>
        </mxCell>
        <mxCell id="GiMZDYjhRyIp7pm7bTPy-155" value="&lt;font style=&quot;font-size: 12px;&quot;&gt;Критический&lt;/font&gt;" style="shape=partialRectangle;html=1;whiteSpace=wrap;connectable=0;strokeColor=#b85450;overflow=hidden;fillColor=#f8cecc;top=0;left=0;bottom=0;right=0;pointerEvents=1;fontSize=16;" vertex="1" parent="GiMZDYjhRyIp7pm7bTPy-153">
          <mxGeometry x="119" width="119" height="55" as="geometry">
            <mxRectangle width="119" height="55" as="alternateBounds" />
          </mxGeometry>
        </mxCell>
        <mxCell id="GiMZDYjhRyIp7pm7bTPy-156" value="&lt;font style=&quot;font-size: 6px;&quot;&gt;Утечка данных о параметрах умного дома клиентов приведет к значительным нарушениям ИБ&lt;/font&gt;" style="shape=partialRectangle;html=1;whiteSpace=wrap;connectable=0;strokeColor=inherit;overflow=hidden;fillColor=none;top=0;left=0;bottom=0;right=0;pointerEvents=1;fontSize=16;" vertex="1" parent="GiMZDYjhRyIp7pm7bTPy-153">
          <mxGeometry x="238" width="167" height="55" as="geometry">
            <mxRectangle width="167" height="55" as="alternateBounds" />
          </mxGeometry>
        </mxCell>
        <mxCell id="GiMZDYjhRyIp7pm7bTPy-157" value="" style="shape=tableRow;horizontal=0;startSize=0;swimlaneHead=0;swimlaneBody=0;strokeColor=inherit;top=0;left=0;bottom=0;right=0;collapsible=0;dropTarget=0;fillColor=none;points=[[0,0.5],[1,0.5]];portConstraint=eastwest;fontSize=16;" vertex="1" parent="GiMZDYjhRyIp7pm7bTPy-152">
          <mxGeometry y="85" width="405" height="51" as="geometry" />
        </mxCell>
        <mxCell id="GiMZDYjhRyIp7pm7bTPy-158" value="&lt;font style=&quot;font-size: 12px;&quot;&gt;Потеря данных&lt;/font&gt;" style="shape=partialRectangle;html=1;whiteSpace=wrap;connectable=0;strokeColor=inherit;overflow=hidden;fillColor=none;top=0;left=0;bottom=0;right=0;pointerEvents=1;fontSize=16;" vertex="1" parent="GiMZDYjhRyIp7pm7bTPy-157">
          <mxGeometry width="119" height="51" as="geometry">
            <mxRectangle width="119" height="51" as="alternateBounds" />
          </mxGeometry>
        </mxCell>
        <mxCell id="GiMZDYjhRyIp7pm7bTPy-159" value="&lt;font style=&quot;font-size: 12px;&quot;&gt;Значительный&lt;/font&gt;" style="shape=partialRectangle;html=1;whiteSpace=wrap;connectable=0;strokeColor=#d6b656;overflow=hidden;fillColor=#fff2cc;top=0;left=0;bottom=0;right=0;pointerEvents=1;fontSize=16;" vertex="1" parent="GiMZDYjhRyIp7pm7bTPy-157">
          <mxGeometry x="119" width="119" height="51" as="geometry">
            <mxRectangle width="119" height="51" as="alternateBounds" />
          </mxGeometry>
        </mxCell>
        <mxCell id="GiMZDYjhRyIp7pm7bTPy-160" value="&lt;font style=&quot;font-size: 6px;&quot;&gt;Допускается, что можно потерять данные с устройств, но можно восстановить&amp;nbsp;&lt;/font&gt;" style="shape=partialRectangle;html=1;whiteSpace=wrap;connectable=0;strokeColor=inherit;overflow=hidden;fillColor=none;top=0;left=0;bottom=0;right=0;pointerEvents=1;fontSize=16;align=center;" vertex="1" parent="GiMZDYjhRyIp7pm7bTPy-157">
          <mxGeometry x="238" width="167" height="51" as="geometry">
            <mxRectangle width="167" height="51" as="alternateBounds" />
          </mxGeometry>
        </mxCell>
        <mxCell id="GiMZDYjhRyIp7pm7bTPy-161" value="" style="shape=tableRow;horizontal=0;startSize=0;swimlaneHead=0;swimlaneBody=0;strokeColor=inherit;top=0;left=0;bottom=0;right=0;collapsible=0;dropTarget=0;fillColor=none;points=[[0,0.5],[1,0.5]];portConstraint=eastwest;fontSize=16;" vertex="1" parent="GiMZDYjhRyIp7pm7bTPy-152">
          <mxGeometry y="136" width="405" height="55" as="geometry" />
        </mxCell>
        <mxCell id="GiMZDYjhRyIp7pm7bTPy-162" value="&lt;font style=&quot;font-size: 12px;&quot;&gt;Искажение данных&lt;/font&gt;" style="shape=partialRectangle;html=1;whiteSpace=wrap;connectable=0;strokeColor=inherit;overflow=hidden;fillColor=none;top=0;left=0;bottom=0;right=0;pointerEvents=1;fontSize=16;" vertex="1" parent="GiMZDYjhRyIp7pm7bTPy-161">
          <mxGeometry width="119" height="55" as="geometry">
            <mxRectangle width="119" height="55" as="alternateBounds" />
          </mxGeometry>
        </mxCell>
        <mxCell id="GiMZDYjhRyIp7pm7bTPy-163" value="&lt;span style=&quot;font-size: 12px;&quot;&gt;Значительный&lt;/span&gt;" style="shape=partialRectangle;html=1;whiteSpace=wrap;connectable=0;strokeColor=#d6b656;overflow=hidden;fillColor=#fff2cc;top=0;left=0;bottom=0;right=0;pointerEvents=1;fontSize=16;" vertex="1" parent="GiMZDYjhRyIp7pm7bTPy-161">
          <mxGeometry x="119" width="119" height="55" as="geometry">
            <mxRectangle width="119" height="55" as="alternateBounds" />
          </mxGeometry>
        </mxCell>
        <mxCell id="GiMZDYjhRyIp7pm7bTPy-164" value="&lt;font style=&quot;font-size: 6px;&quot;&gt;Данные с датчиков могут быть искажены, допускается, но не является критичным&lt;/font&gt;" style="shape=partialRectangle;html=1;whiteSpace=wrap;connectable=0;strokeColor=inherit;overflow=hidden;fillColor=none;top=0;left=0;bottom=0;right=0;pointerEvents=1;fontSize=16;" vertex="1" parent="GiMZDYjhRyIp7pm7bTPy-161">
          <mxGeometry x="238" width="167" height="55" as="geometry">
            <mxRectangle width="167" height="55" as="alternateBounds" />
          </mxGeometry>
        </mxCell>
        <mxCell id="GiMZDYjhRyIp7pm7bTPy-165" value="" style="shape=tableRow;horizontal=0;startSize=0;swimlaneHead=0;swimlaneBody=0;strokeColor=inherit;top=0;left=0;bottom=0;right=0;collapsible=0;dropTarget=0;fillColor=none;points=[[0,0.5],[1,0.5]];portConstraint=eastwest;fontSize=16;" vertex="1" parent="GiMZDYjhRyIp7pm7bTPy-152">
          <mxGeometry y="191" width="405" height="54" as="geometry" />
        </mxCell>
        <mxCell id="GiMZDYjhRyIp7pm7bTPy-166" value="&lt;font style=&quot;font-size: 12px;&quot;&gt;Некачественные данные&lt;/font&gt;" style="shape=partialRectangle;html=1;whiteSpace=wrap;connectable=0;strokeColor=inherit;overflow=hidden;fillColor=none;top=0;left=0;bottom=0;right=0;pointerEvents=1;fontSize=16;" vertex="1" parent="GiMZDYjhRyIp7pm7bTPy-165">
          <mxGeometry width="119" height="54" as="geometry">
            <mxRectangle width="119" height="54" as="alternateBounds" />
          </mxGeometry>
        </mxCell>
        <mxCell id="GiMZDYjhRyIp7pm7bTPy-167" value="&lt;span style=&quot;font-size: 12px;&quot;&gt;Значительный&lt;/span&gt;" style="shape=partialRectangle;html=1;whiteSpace=wrap;connectable=0;strokeColor=#d6b656;overflow=hidden;fillColor=#fff2cc;top=0;left=0;bottom=0;right=0;pointerEvents=1;fontSize=16;" vertex="1" parent="GiMZDYjhRyIp7pm7bTPy-165">
          <mxGeometry x="119" width="119" height="54" as="geometry">
            <mxRectangle width="119" height="54" as="alternateBounds" />
          </mxGeometry>
        </mxCell>
        <mxCell id="GiMZDYjhRyIp7pm7bTPy-168" value="&lt;span style=&quot;font-size: 6px;&quot;&gt;Данные с датчиков могут быть некачественны, допускается, но не является критичным&lt;/span&gt;" style="shape=partialRectangle;html=1;whiteSpace=wrap;connectable=0;strokeColor=inherit;overflow=hidden;fillColor=none;top=0;left=0;bottom=0;right=0;pointerEvents=1;fontSize=16;" vertex="1" parent="GiMZDYjhRyIp7pm7bTPy-165">
          <mxGeometry x="238" width="167" height="54" as="geometry">
            <mxRectangle width="167" height="54" as="alternateBounds" />
          </mxGeometry>
        </mxCell>
        <mxCell id="GiMZDYjhRyIp7pm7bTPy-169" value="" style="shape=tableRow;horizontal=0;startSize=0;swimlaneHead=0;swimlaneBody=0;strokeColor=inherit;top=0;left=0;bottom=0;right=0;collapsible=0;dropTarget=0;fillColor=none;points=[[0,0.5],[1,0.5]];portConstraint=eastwest;fontSize=16;" vertex="1" parent="GiMZDYjhRyIp7pm7bTPy-152">
          <mxGeometry y="245" width="405" height="55" as="geometry" />
        </mxCell>
        <mxCell id="GiMZDYjhRyIp7pm7bTPy-170" value="&lt;font style=&quot;font-size: 12px;&quot;&gt;Обесценивание данных&lt;/font&gt;" style="shape=partialRectangle;html=1;whiteSpace=wrap;connectable=0;strokeColor=inherit;overflow=hidden;fillColor=none;top=0;left=0;bottom=0;right=0;pointerEvents=1;fontSize=16;" vertex="1" parent="GiMZDYjhRyIp7pm7bTPy-169">
          <mxGeometry width="119" height="55" as="geometry">
            <mxRectangle width="119" height="55" as="alternateBounds" />
          </mxGeometry>
        </mxCell>
        <mxCell id="GiMZDYjhRyIp7pm7bTPy-171" value="&lt;span style=&quot;font-size: 12px;&quot;&gt;Значительный&lt;/span&gt;" style="shape=partialRectangle;html=1;whiteSpace=wrap;connectable=0;strokeColor=#d6b656;overflow=hidden;fillColor=#fff2cc;top=0;left=0;bottom=0;right=0;pointerEvents=1;fontSize=16;" vertex="1" parent="GiMZDYjhRyIp7pm7bTPy-169">
          <mxGeometry x="119" width="119" height="55" as="geometry">
            <mxRectangle width="119" height="55" as="alternateBounds" />
          </mxGeometry>
        </mxCell>
        <mxCell id="GiMZDYjhRyIp7pm7bTPy-172" value="&lt;span style=&quot;font-size: 6px;&quot;&gt;Данные с датчиков могут быть искажены, допускается, но не является критичным&lt;/span&gt;" style="shape=partialRectangle;html=1;whiteSpace=wrap;connectable=0;strokeColor=inherit;overflow=hidden;fillColor=none;top=0;left=0;bottom=0;right=0;pointerEvents=1;fontSize=16;" vertex="1" parent="GiMZDYjhRyIp7pm7bTPy-169">
          <mxGeometry x="238" width="167" height="55" as="geometry">
            <mxRectangle width="167" height="55" as="alternateBounds" />
          </mxGeometry>
        </mxCell>
        <mxCell id="GiMZDYjhRyIp7pm7bTPy-174" value="Финансовые данные компании (отчеты, и.т.д)" style="shape=table;startSize=30;container=1;collapsible=0;childLayout=tableLayout;strokeColor=default;fontSize=16;" vertex="1" parent="1">
          <mxGeometry x="327.5" y="910" width="422.5" height="300" as="geometry" />
        </mxCell>
        <mxCell id="GiMZDYjhRyIp7pm7bTPy-175" value="" style="shape=tableRow;horizontal=0;startSize=0;swimlaneHead=0;swimlaneBody=0;strokeColor=inherit;top=0;left=0;bottom=0;right=0;collapsible=0;dropTarget=0;fillColor=none;points=[[0,0.5],[1,0.5]];portConstraint=eastwest;fontSize=16;" vertex="1" parent="GiMZDYjhRyIp7pm7bTPy-174">
          <mxGeometry y="30" width="422.5" height="55" as="geometry" />
        </mxCell>
        <mxCell id="GiMZDYjhRyIp7pm7bTPy-176" value="&lt;font style=&quot;font-size: 12px;&quot;&gt;Утечка данных&lt;/font&gt;" style="shape=partialRectangle;html=1;whiteSpace=wrap;connectable=0;strokeColor=inherit;overflow=hidden;fillColor=none;top=0;left=0;bottom=0;right=0;pointerEvents=1;fontSize=16;" vertex="1" parent="GiMZDYjhRyIp7pm7bTPy-175">
          <mxGeometry width="124" height="55" as="geometry">
            <mxRectangle width="124" height="55" as="alternateBounds" />
          </mxGeometry>
        </mxCell>
        <mxCell id="GiMZDYjhRyIp7pm7bTPy-177" value="&lt;font style=&quot;font-size: 12px;&quot;&gt;Критический&lt;/font&gt;" style="shape=partialRectangle;html=1;whiteSpace=wrap;connectable=0;strokeColor=#b85450;overflow=hidden;fillColor=#f8cecc;top=0;left=0;bottom=0;right=0;pointerEvents=1;fontSize=16;" vertex="1" parent="GiMZDYjhRyIp7pm7bTPy-175">
          <mxGeometry x="124" width="124" height="55" as="geometry">
            <mxRectangle width="124" height="55" as="alternateBounds" />
          </mxGeometry>
        </mxCell>
        <mxCell id="GiMZDYjhRyIp7pm7bTPy-178" value="&lt;font style=&quot;font-size: 8px;&quot;&gt;Критически важно защититься от утечки финансовых отчетов компании&lt;/font&gt;" style="shape=partialRectangle;html=1;whiteSpace=wrap;connectable=0;strokeColor=inherit;overflow=hidden;fillColor=none;top=0;left=0;bottom=0;right=0;pointerEvents=1;fontSize=16;" vertex="1" parent="GiMZDYjhRyIp7pm7bTPy-175">
          <mxGeometry x="248" width="175" height="55" as="geometry">
            <mxRectangle width="175" height="55" as="alternateBounds" />
          </mxGeometry>
        </mxCell>
        <mxCell id="GiMZDYjhRyIp7pm7bTPy-179" value="" style="shape=tableRow;horizontal=0;startSize=0;swimlaneHead=0;swimlaneBody=0;strokeColor=inherit;top=0;left=0;bottom=0;right=0;collapsible=0;dropTarget=0;fillColor=none;points=[[0,0.5],[1,0.5]];portConstraint=eastwest;fontSize=16;" vertex="1" parent="GiMZDYjhRyIp7pm7bTPy-174">
          <mxGeometry y="85" width="422.5" height="51" as="geometry" />
        </mxCell>
        <mxCell id="GiMZDYjhRyIp7pm7bTPy-180" value="&lt;font style=&quot;font-size: 12px;&quot;&gt;Потеря данных&lt;/font&gt;" style="shape=partialRectangle;html=1;whiteSpace=wrap;connectable=0;strokeColor=inherit;overflow=hidden;fillColor=none;top=0;left=0;bottom=0;right=0;pointerEvents=1;fontSize=16;" vertex="1" parent="GiMZDYjhRyIp7pm7bTPy-179">
          <mxGeometry width="124" height="51" as="geometry">
            <mxRectangle width="124" height="51" as="alternateBounds" />
          </mxGeometry>
        </mxCell>
        <mxCell id="GiMZDYjhRyIp7pm7bTPy-181" value="&lt;font style=&quot;font-size: 12px;&quot;&gt;Критический&lt;/font&gt;" style="shape=partialRectangle;html=1;whiteSpace=wrap;connectable=0;strokeColor=#b85450;overflow=hidden;fillColor=#f8cecc;top=0;left=0;bottom=0;right=0;pointerEvents=1;fontSize=16;" vertex="1" parent="GiMZDYjhRyIp7pm7bTPy-179">
          <mxGeometry x="124" width="124" height="51" as="geometry">
            <mxRectangle width="124" height="51" as="alternateBounds" />
          </mxGeometry>
        </mxCell>
        <mxCell id="GiMZDYjhRyIp7pm7bTPy-182" value="&lt;font style=&quot;font-size: 8px;&quot;&gt;Данные о движениях финансов нельзя потерять&lt;/font&gt;" style="shape=partialRectangle;html=1;whiteSpace=wrap;connectable=0;strokeColor=inherit;overflow=hidden;fillColor=none;top=0;left=0;bottom=0;right=0;pointerEvents=1;fontSize=16;align=center;" vertex="1" parent="GiMZDYjhRyIp7pm7bTPy-179">
          <mxGeometry x="248" width="175" height="51" as="geometry">
            <mxRectangle width="175" height="51" as="alternateBounds" />
          </mxGeometry>
        </mxCell>
        <mxCell id="GiMZDYjhRyIp7pm7bTPy-183" value="" style="shape=tableRow;horizontal=0;startSize=0;swimlaneHead=0;swimlaneBody=0;strokeColor=inherit;top=0;left=0;bottom=0;right=0;collapsible=0;dropTarget=0;fillColor=none;points=[[0,0.5],[1,0.5]];portConstraint=eastwest;fontSize=16;" vertex="1" parent="GiMZDYjhRyIp7pm7bTPy-174">
          <mxGeometry y="136" width="422.5" height="55" as="geometry" />
        </mxCell>
        <mxCell id="GiMZDYjhRyIp7pm7bTPy-184" value="&lt;font style=&quot;font-size: 12px;&quot;&gt;Искажение данных&lt;/font&gt;" style="shape=partialRectangle;html=1;whiteSpace=wrap;connectable=0;strokeColor=inherit;overflow=hidden;fillColor=none;top=0;left=0;bottom=0;right=0;pointerEvents=1;fontSize=16;" vertex="1" parent="GiMZDYjhRyIp7pm7bTPy-183">
          <mxGeometry width="124" height="55" as="geometry">
            <mxRectangle width="124" height="55" as="alternateBounds" />
          </mxGeometry>
        </mxCell>
        <mxCell id="GiMZDYjhRyIp7pm7bTPy-185" value="&lt;span style=&quot;font-size: 12px;&quot;&gt;Значительный&lt;/span&gt;" style="shape=partialRectangle;html=1;whiteSpace=wrap;connectable=0;strokeColor=#d6b656;overflow=hidden;fillColor=#fff2cc;top=0;left=0;bottom=0;right=0;pointerEvents=1;fontSize=16;" vertex="1" parent="GiMZDYjhRyIp7pm7bTPy-183">
          <mxGeometry x="124" width="124" height="55" as="geometry">
            <mxRectangle width="124" height="55" as="alternateBounds" />
          </mxGeometry>
        </mxCell>
        <mxCell id="GiMZDYjhRyIp7pm7bTPy-186" value="&lt;span style=&quot;font-size: 6px;&quot;&gt;Допускается, что данные могут быть искажены, но это можно обнаружить и провести доп. аудит&lt;/span&gt;" style="shape=partialRectangle;html=1;whiteSpace=wrap;connectable=0;strokeColor=inherit;overflow=hidden;fillColor=none;top=0;left=0;bottom=0;right=0;pointerEvents=1;fontSize=16;" vertex="1" parent="GiMZDYjhRyIp7pm7bTPy-183">
          <mxGeometry x="248" width="175" height="55" as="geometry">
            <mxRectangle width="175" height="55" as="alternateBounds" />
          </mxGeometry>
        </mxCell>
        <mxCell id="GiMZDYjhRyIp7pm7bTPy-187" value="" style="shape=tableRow;horizontal=0;startSize=0;swimlaneHead=0;swimlaneBody=0;strokeColor=inherit;top=0;left=0;bottom=0;right=0;collapsible=0;dropTarget=0;fillColor=none;points=[[0,0.5],[1,0.5]];portConstraint=eastwest;fontSize=16;" vertex="1" parent="GiMZDYjhRyIp7pm7bTPy-174">
          <mxGeometry y="191" width="422.5" height="54" as="geometry" />
        </mxCell>
        <mxCell id="GiMZDYjhRyIp7pm7bTPy-188" value="&lt;font style=&quot;font-size: 12px;&quot;&gt;Некачественные данные&lt;/font&gt;" style="shape=partialRectangle;html=1;whiteSpace=wrap;connectable=0;strokeColor=inherit;overflow=hidden;fillColor=none;top=0;left=0;bottom=0;right=0;pointerEvents=1;fontSize=16;" vertex="1" parent="GiMZDYjhRyIp7pm7bTPy-187">
          <mxGeometry width="124" height="54" as="geometry">
            <mxRectangle width="124" height="54" as="alternateBounds" />
          </mxGeometry>
        </mxCell>
        <mxCell id="GiMZDYjhRyIp7pm7bTPy-189" value="&lt;span style=&quot;font-size: 12px;&quot;&gt;Значительный&lt;/span&gt;" style="shape=partialRectangle;html=1;whiteSpace=wrap;connectable=0;strokeColor=#d6b656;overflow=hidden;fillColor=#fff2cc;top=0;left=0;bottom=0;right=0;pointerEvents=1;fontSize=16;" vertex="1" parent="GiMZDYjhRyIp7pm7bTPy-187">
          <mxGeometry x="124" width="124" height="54" as="geometry">
            <mxRectangle width="124" height="54" as="alternateBounds" />
          </mxGeometry>
        </mxCell>
        <mxCell id="GiMZDYjhRyIp7pm7bTPy-190" value="&lt;font style=&quot;font-size: 6px;&quot;&gt;Допускается, что данные могут быть некачественными,&amp;nbsp;но это можно обнаружить и провести доп. аудит&lt;/font&gt;" style="shape=partialRectangle;html=1;whiteSpace=wrap;connectable=0;strokeColor=inherit;overflow=hidden;fillColor=none;top=0;left=0;bottom=0;right=0;pointerEvents=1;fontSize=16;" vertex="1" parent="GiMZDYjhRyIp7pm7bTPy-187">
          <mxGeometry x="248" width="175" height="54" as="geometry">
            <mxRectangle width="175" height="54" as="alternateBounds" />
          </mxGeometry>
        </mxCell>
        <mxCell id="GiMZDYjhRyIp7pm7bTPy-191" value="" style="shape=tableRow;horizontal=0;startSize=0;swimlaneHead=0;swimlaneBody=0;strokeColor=inherit;top=0;left=0;bottom=0;right=0;collapsible=0;dropTarget=0;fillColor=none;points=[[0,0.5],[1,0.5]];portConstraint=eastwest;fontSize=16;" vertex="1" parent="GiMZDYjhRyIp7pm7bTPy-174">
          <mxGeometry y="245" width="422.5" height="55" as="geometry" />
        </mxCell>
        <mxCell id="GiMZDYjhRyIp7pm7bTPy-192" value="&lt;font style=&quot;font-size: 12px;&quot;&gt;Обесценивание данных&lt;/font&gt;" style="shape=partialRectangle;html=1;whiteSpace=wrap;connectable=0;strokeColor=inherit;overflow=hidden;fillColor=none;top=0;left=0;bottom=0;right=0;pointerEvents=1;fontSize=16;" vertex="1" parent="GiMZDYjhRyIp7pm7bTPy-191">
          <mxGeometry width="124" height="55" as="geometry">
            <mxRectangle width="124" height="55" as="alternateBounds" />
          </mxGeometry>
        </mxCell>
        <mxCell id="GiMZDYjhRyIp7pm7bTPy-193" value="&lt;span style=&quot;font-size: 12px;&quot;&gt;Значительный&lt;/span&gt;" style="shape=partialRectangle;html=1;whiteSpace=wrap;connectable=0;strokeColor=#d6b656;overflow=hidden;fillColor=#fff2cc;top=0;left=0;bottom=0;right=0;pointerEvents=1;fontSize=16;" vertex="1" parent="GiMZDYjhRyIp7pm7bTPy-191">
          <mxGeometry x="124" width="124" height="55" as="geometry">
            <mxRectangle width="124" height="55" as="alternateBounds" />
          </mxGeometry>
        </mxCell>
        <mxCell id="GiMZDYjhRyIp7pm7bTPy-194" value="&lt;span style=&quot;font-size: 6px;&quot;&gt;Допускается, но не является критичным&lt;/span&gt;" style="shape=partialRectangle;html=1;whiteSpace=wrap;connectable=0;strokeColor=inherit;overflow=hidden;fillColor=none;top=0;left=0;bottom=0;right=0;pointerEvents=1;fontSize=16;" vertex="1" parent="GiMZDYjhRyIp7pm7bTPy-191">
          <mxGeometry x="248" width="175" height="55" as="geometry">
            <mxRectangle width="175" height="55" as="alternateBounds" />
          </mxGeometry>
        </mxCell>
        <mxCell id="GiMZDYjhRyIp7pm7bTPy-196" value="Данные по сделкам с участием гос. органов" style="shape=table;startSize=30;container=1;collapsible=0;childLayout=tableLayout;strokeColor=default;fontSize=16;" vertex="1" parent="1">
          <mxGeometry x="-570" y="200" width="405" height="300" as="geometry" />
        </mxCell>
        <mxCell id="GiMZDYjhRyIp7pm7bTPy-197" value="" style="shape=tableRow;horizontal=0;startSize=0;swimlaneHead=0;swimlaneBody=0;strokeColor=inherit;top=0;left=0;bottom=0;right=0;collapsible=0;dropTarget=0;fillColor=none;points=[[0,0.5],[1,0.5]];portConstraint=eastwest;fontSize=16;" vertex="1" parent="GiMZDYjhRyIp7pm7bTPy-196">
          <mxGeometry y="30" width="405" height="55" as="geometry" />
        </mxCell>
        <mxCell id="GiMZDYjhRyIp7pm7bTPy-198" value="&lt;font style=&quot;font-size: 12px;&quot;&gt;Утечка данных&lt;/font&gt;" style="shape=partialRectangle;html=1;whiteSpace=wrap;connectable=0;strokeColor=inherit;overflow=hidden;fillColor=none;top=0;left=0;bottom=0;right=0;pointerEvents=1;fontSize=16;" vertex="1" parent="GiMZDYjhRyIp7pm7bTPy-197">
          <mxGeometry width="119" height="55" as="geometry">
            <mxRectangle width="119" height="55" as="alternateBounds" />
          </mxGeometry>
        </mxCell>
        <mxCell id="GiMZDYjhRyIp7pm7bTPy-199" value="&lt;font style=&quot;font-size: 12px;&quot;&gt;Критический&lt;/font&gt;" style="shape=partialRectangle;html=1;whiteSpace=wrap;connectable=0;strokeColor=#b85450;overflow=hidden;fillColor=#f8cecc;top=0;left=0;bottom=0;right=0;pointerEvents=1;fontSize=16;" vertex="1" parent="GiMZDYjhRyIp7pm7bTPy-197">
          <mxGeometry x="119" width="119" height="55" as="geometry">
            <mxRectangle width="119" height="55" as="alternateBounds" />
          </mxGeometry>
        </mxCell>
        <mxCell id="GiMZDYjhRyIp7pm7bTPy-200" value="&lt;font style=&quot;font-size: 8px;&quot;&gt;Нельзя допустить утечку секретных данных&lt;/font&gt;" style="shape=partialRectangle;html=1;whiteSpace=wrap;connectable=0;strokeColor=inherit;overflow=hidden;fillColor=none;top=0;left=0;bottom=0;right=0;pointerEvents=1;fontSize=16;" vertex="1" parent="GiMZDYjhRyIp7pm7bTPy-197">
          <mxGeometry x="238" width="167" height="55" as="geometry">
            <mxRectangle width="167" height="55" as="alternateBounds" />
          </mxGeometry>
        </mxCell>
        <mxCell id="GiMZDYjhRyIp7pm7bTPy-201" value="" style="shape=tableRow;horizontal=0;startSize=0;swimlaneHead=0;swimlaneBody=0;strokeColor=inherit;top=0;left=0;bottom=0;right=0;collapsible=0;dropTarget=0;fillColor=none;points=[[0,0.5],[1,0.5]];portConstraint=eastwest;fontSize=16;" vertex="1" parent="GiMZDYjhRyIp7pm7bTPy-196">
          <mxGeometry y="85" width="405" height="51" as="geometry" />
        </mxCell>
        <mxCell id="GiMZDYjhRyIp7pm7bTPy-202" value="&lt;font style=&quot;font-size: 12px;&quot;&gt;Потеря данных&lt;/font&gt;" style="shape=partialRectangle;html=1;whiteSpace=wrap;connectable=0;strokeColor=inherit;overflow=hidden;fillColor=none;top=0;left=0;bottom=0;right=0;pointerEvents=1;fontSize=16;" vertex="1" parent="GiMZDYjhRyIp7pm7bTPy-201">
          <mxGeometry width="119" height="51" as="geometry">
            <mxRectangle width="119" height="51" as="alternateBounds" />
          </mxGeometry>
        </mxCell>
        <mxCell id="GiMZDYjhRyIp7pm7bTPy-203" value="&lt;font style=&quot;font-size: 12px;&quot;&gt;Критический&lt;/font&gt;" style="shape=partialRectangle;html=1;whiteSpace=wrap;connectable=0;strokeColor=#b85450;overflow=hidden;fillColor=#f8cecc;top=0;left=0;bottom=0;right=0;pointerEvents=1;fontSize=16;" vertex="1" parent="GiMZDYjhRyIp7pm7bTPy-201">
          <mxGeometry x="119" width="119" height="51" as="geometry">
            <mxRectangle width="119" height="51" as="alternateBounds" />
          </mxGeometry>
        </mxCell>
        <mxCell id="GiMZDYjhRyIp7pm7bTPy-204" value="&lt;font style=&quot;font-size: 8px;&quot;&gt;Критически важно сохранить данные о сделках с гос. органами&lt;/font&gt;" style="shape=partialRectangle;html=1;whiteSpace=wrap;connectable=0;strokeColor=inherit;overflow=hidden;fillColor=none;top=0;left=0;bottom=0;right=0;pointerEvents=1;fontSize=16;align=center;" vertex="1" parent="GiMZDYjhRyIp7pm7bTPy-201">
          <mxGeometry x="238" width="167" height="51" as="geometry">
            <mxRectangle width="167" height="51" as="alternateBounds" />
          </mxGeometry>
        </mxCell>
        <mxCell id="GiMZDYjhRyIp7pm7bTPy-205" value="" style="shape=tableRow;horizontal=0;startSize=0;swimlaneHead=0;swimlaneBody=0;strokeColor=inherit;top=0;left=0;bottom=0;right=0;collapsible=0;dropTarget=0;fillColor=none;points=[[0,0.5],[1,0.5]];portConstraint=eastwest;fontSize=16;" vertex="1" parent="GiMZDYjhRyIp7pm7bTPy-196">
          <mxGeometry y="136" width="405" height="55" as="geometry" />
        </mxCell>
        <mxCell id="GiMZDYjhRyIp7pm7bTPy-206" value="&lt;font style=&quot;font-size: 12px;&quot;&gt;Искажение данных&lt;/font&gt;" style="shape=partialRectangle;html=1;whiteSpace=wrap;connectable=0;strokeColor=inherit;overflow=hidden;fillColor=none;top=0;left=0;bottom=0;right=0;pointerEvents=1;fontSize=16;" vertex="1" parent="GiMZDYjhRyIp7pm7bTPy-205">
          <mxGeometry width="119" height="55" as="geometry">
            <mxRectangle width="119" height="55" as="alternateBounds" />
          </mxGeometry>
        </mxCell>
        <mxCell id="GiMZDYjhRyIp7pm7bTPy-207" value="&lt;font style=&quot;font-size: 12px;&quot;&gt;Критический&lt;/font&gt;" style="shape=partialRectangle;html=1;whiteSpace=wrap;connectable=0;strokeColor=#b85450;overflow=hidden;fillColor=#f8cecc;top=0;left=0;bottom=0;right=0;pointerEvents=1;fontSize=16;" vertex="1" parent="GiMZDYjhRyIp7pm7bTPy-205">
          <mxGeometry x="119" width="119" height="55" as="geometry">
            <mxRectangle width="119" height="55" as="alternateBounds" />
          </mxGeometry>
        </mxCell>
        <mxCell id="GiMZDYjhRyIp7pm7bTPy-208" value="&lt;font style=&quot;font-size: 8px;&quot;&gt;Критически важно иметь достоверные данные&lt;/font&gt;" style="shape=partialRectangle;html=1;whiteSpace=wrap;connectable=0;strokeColor=inherit;overflow=hidden;fillColor=none;top=0;left=0;bottom=0;right=0;pointerEvents=1;fontSize=16;" vertex="1" parent="GiMZDYjhRyIp7pm7bTPy-205">
          <mxGeometry x="238" width="167" height="55" as="geometry">
            <mxRectangle width="167" height="55" as="alternateBounds" />
          </mxGeometry>
        </mxCell>
        <mxCell id="GiMZDYjhRyIp7pm7bTPy-209" value="" style="shape=tableRow;horizontal=0;startSize=0;swimlaneHead=0;swimlaneBody=0;strokeColor=inherit;top=0;left=0;bottom=0;right=0;collapsible=0;dropTarget=0;fillColor=none;points=[[0,0.5],[1,0.5]];portConstraint=eastwest;fontSize=16;" vertex="1" parent="GiMZDYjhRyIp7pm7bTPy-196">
          <mxGeometry y="191" width="405" height="54" as="geometry" />
        </mxCell>
        <mxCell id="GiMZDYjhRyIp7pm7bTPy-210" value="&lt;font style=&quot;font-size: 12px;&quot;&gt;Некачественные данные&lt;/font&gt;" style="shape=partialRectangle;html=1;whiteSpace=wrap;connectable=0;strokeColor=inherit;overflow=hidden;fillColor=none;top=0;left=0;bottom=0;right=0;pointerEvents=1;fontSize=16;" vertex="1" parent="GiMZDYjhRyIp7pm7bTPy-209">
          <mxGeometry width="119" height="54" as="geometry">
            <mxRectangle width="119" height="54" as="alternateBounds" />
          </mxGeometry>
        </mxCell>
        <mxCell id="GiMZDYjhRyIp7pm7bTPy-211" value="&lt;font style=&quot;font-size: 12px;&quot;&gt;Критический&lt;/font&gt;" style="shape=partialRectangle;html=1;whiteSpace=wrap;connectable=0;strokeColor=#b85450;overflow=hidden;fillColor=#f8cecc;top=0;left=0;bottom=0;right=0;pointerEvents=1;fontSize=16;" vertex="1" parent="GiMZDYjhRyIp7pm7bTPy-209">
          <mxGeometry x="119" width="119" height="54" as="geometry">
            <mxRectangle width="119" height="54" as="alternateBounds" />
          </mxGeometry>
        </mxCell>
        <mxCell id="GiMZDYjhRyIp7pm7bTPy-212" value="&lt;span style=&quot;font-size: 8px;&quot;&gt;Критически важно иметь достоверные данные&lt;/span&gt;" style="shape=partialRectangle;html=1;whiteSpace=wrap;connectable=0;strokeColor=inherit;overflow=hidden;fillColor=none;top=0;left=0;bottom=0;right=0;pointerEvents=1;fontSize=16;" vertex="1" parent="GiMZDYjhRyIp7pm7bTPy-209">
          <mxGeometry x="238" width="167" height="54" as="geometry">
            <mxRectangle width="167" height="54" as="alternateBounds" />
          </mxGeometry>
        </mxCell>
        <mxCell id="GiMZDYjhRyIp7pm7bTPy-213" value="" style="shape=tableRow;horizontal=0;startSize=0;swimlaneHead=0;swimlaneBody=0;strokeColor=inherit;top=0;left=0;bottom=0;right=0;collapsible=0;dropTarget=0;fillColor=none;points=[[0,0.5],[1,0.5]];portConstraint=eastwest;fontSize=16;" vertex="1" parent="GiMZDYjhRyIp7pm7bTPy-196">
          <mxGeometry y="245" width="405" height="55" as="geometry" />
        </mxCell>
        <mxCell id="GiMZDYjhRyIp7pm7bTPy-214" value="&lt;font style=&quot;font-size: 12px;&quot;&gt;Обесценивание данных&lt;/font&gt;" style="shape=partialRectangle;html=1;whiteSpace=wrap;connectable=0;strokeColor=inherit;overflow=hidden;fillColor=none;top=0;left=0;bottom=0;right=0;pointerEvents=1;fontSize=16;" vertex="1" parent="GiMZDYjhRyIp7pm7bTPy-213">
          <mxGeometry width="119" height="55" as="geometry">
            <mxRectangle width="119" height="55" as="alternateBounds" />
          </mxGeometry>
        </mxCell>
        <mxCell id="GiMZDYjhRyIp7pm7bTPy-215" value="&lt;font style=&quot;font-size: 12px;&quot;&gt;Критический&lt;/font&gt;" style="shape=partialRectangle;html=1;whiteSpace=wrap;connectable=0;strokeColor=#b85450;overflow=hidden;fillColor=#f8cecc;top=0;left=0;bottom=0;right=0;pointerEvents=1;fontSize=16;" vertex="1" parent="GiMZDYjhRyIp7pm7bTPy-213">
          <mxGeometry x="119" width="119" height="55" as="geometry">
            <mxRectangle width="119" height="55" as="alternateBounds" />
          </mxGeometry>
        </mxCell>
        <mxCell id="GiMZDYjhRyIp7pm7bTPy-216" value="&lt;span style=&quot;font-size: 8px;&quot;&gt;Критически важно иметь достоверные данные&lt;/span&gt;" style="shape=partialRectangle;html=1;whiteSpace=wrap;connectable=0;strokeColor=inherit;overflow=hidden;fillColor=none;top=0;left=0;bottom=0;right=0;pointerEvents=1;fontSize=16;" vertex="1" parent="GiMZDYjhRyIp7pm7bTPy-213">
          <mxGeometry x="238" width="167" height="55" as="geometry">
            <mxRectangle width="167" height="55" as="alternateBounds" />
          </mxGeometry>
        </mxCell>
        <mxCell id="GiMZDYjhRyIp7pm7bTPy-217" style="edgeStyle=orthogonalEdgeStyle;rounded=0;orthogonalLoop=1;jettySize=auto;html=1;entryX=0.998;entryY=0.8;entryDx=0;entryDy=0;entryPerimeter=0;" edge="1" parent="1" source="GiMZDYjhRyIp7pm7bTPy-6" target="GiMZDYjhRyIp7pm7bTPy-205">
          <mxGeometry relative="1" as="geometry" />
        </mxCell>
      </root>
    </mxGraphModel>
  </diagram>
</mxfile>
